<?xml version="1.0" encoding="iso-8859-1"?>
<svg version="1.1" id="Layer_1" xmlns="http://www.w3.org/2000/svg" xmlns:xlink="http://www.w3.org/1999/xlink" x="0px" y="0px"
	 viewBox="0 0 512 512" style="enable-background:new 0 0 512 512;" xml:space="preserve">
<g style="stroke:#00c8c8;fill:#00c8c8;">
	<g>
		<g>
			<path d="M211.134,104.542v405.449h89.732V104.542L256,2.009L211.134,104.542z M285.031,494.156h-58.062v-26.392h44.866v-15.835
				h-44.866v-15.835h58.062V494.156z M285.031,420.259h-21.113v-44.866h-15.835v44.866h-21.113V114.115h58.062V420.259z
				 M280.844,98.28h-49.688l6.926-15.835h35.836L280.844,98.28z M245.008,66.61L256,41.477l10.993,25.132H245.008z"/>
			<rect x="248.082" y="132.592" width="15.835" height="216.412"/>
			<polygon points="319.34,224.96 496.165,224.96 496.165,283.022 319.34,283.022 319.34,298.857 512,298.857 512,209.125
				319.34,209.125 			"/>
			<polygon points="0,298.857 192.66,298.857 192.66,283.022 15.835,283.022 15.835,224.96 192.66,224.96 192.66,209.125 0,209.125
							"/>
			<polygon points="319.34,71.888 319.34,87.723 496.165,87.723 496.165,145.785 319.34,145.785 319.34,161.62 512,161.62
				512,71.888 			"/>
			<polygon points="0,161.62 192.66,161.62 192.66,145.785 15.835,145.785 15.835,87.723 192.66,87.723 192.66,71.888 0,71.888
				"/>
			<polygon points="319.34,362.197 496.165,362.197 496.165,420.259 319.34,420.259 319.34,436.094 512,436.094 512,346.362
				319.34,346.362 			"/>
			<polygon points="0,436.094 192.66,436.094 192.66,420.259 15.835,420.259 15.835,362.197 192.66,362.197 192.66,346.362
				0,346.362 			"/>
			<rect x="34.309" y="108.84" width="126.68" height="15.835"/>
			<rect x="171.546" y="108.84" width="21.113" height="15.835"/>
			<rect x="319.34" y="108.84" width="21.113" height="15.835"/>
			<rect x="356.289" y="108.84" width="21.113" height="15.835"/>
			<rect x="393.237" y="108.84" width="84.454" height="15.835"/>
			<rect x="34.309" y="383.314" width="126.68" height="15.835"/>
			<rect x="171.546" y="383.314" width="21.113" height="15.835"/>
			<rect x="319.34" y="383.314" width="21.113" height="15.835"/>
			<rect x="356.289" y="383.314" width="21.113" height="15.835"/>
			<rect x="393.237" y="383.314" width="84.454" height="15.835"/>
			<rect x="351.01" y="246.077" width="126.68" height="15.835"/>
			<rect x="319.34" y="246.077" width="21.113" height="15.835"/>
			<rect x="171.546" y="246.077" width="21.113" height="15.835"/>
			<rect x="134.598" y="246.077" width="21.113" height="15.835"/>
			<rect x="34.309" y="246.077" width="84.454" height="15.835"/>
		</g>
	</g>
</g>
</svg>
