<?xml version="1.0" encoding="UTF-8" standalone="no"?>
<svg
   xmlns:dc="http://purl.org/dc/elements/1.1/"
   xmlns:cc="http://creativecommons.org/ns#"
   xmlns:rdf="http://www.w3.org/1999/02/22-rdf-syntax-ns#"
   xmlns:svg="http://www.w3.org/2000/svg"
   xmlns="http://www.w3.org/2000/svg"
   id="svg8"
   version="1.1"
   viewBox="0 0 39.687501 9.4717185"
   height="35.798622"
   width="150">
  <defs
     id="defs2">
    <clipPath
       id="clipPath3852"
       clipPathUnits="userSpaceOnUse">
      <rect
         transform="matrix(-0.68603385,0.72756962,0.72756962,0.68603385,0,0)"
         y="220.55939"
         x="121.24105"
         height="20.269871"
         width="8.3701448"
         id="rect3854"
         style="fill:#f2f2f2;fill-opacity:1;stroke:none;stroke-width:0.26499999;stroke-miterlimit:4;stroke-dasharray:none;stroke-dashoffset:0;stroke-opacity:1" />
    </clipPath>
  </defs>
  <metadata
     id="metadata5">
    <rdf:RDF>
      <cc:Work
         rdf:about="">
        <dc:format>image/svg+xml</dc:format>
        <dc:type
           rdf:resource="http://purl.org/dc/dcmitype/StillImage" />
        <dc:title></dc:title>
      </cc:Work>
    </rdf:RDF>
  </metadata>
  <g
     transform="translate(-67.965258,-189.9069)"
     id="layer1">
    <g
       transform="matrix(0.5,0,0,0.5,33.982629,99.689311)"
       id="g4715">
      <text
         id="text4741"
         y="212.23419"
         x="51.877361"
         style="font-style:normal;font-variant:normal;font-weight:normal;font-stretch:normal;font-size:2.39504933px;line-height:125%;font-family:'Byom Icons';-inkscape-font-specification:'Byom Icons';letter-spacing:0px;word-spacing:0px;fill:#000000;fill-opacity:1;stroke:none;stroke-width:0.08164941px;stroke-linecap:butt;stroke-linejoin:miter;stroke-opacity:1"
         xml:space="preserve"><tspan
           style="stroke-width:0.08164941px"
           y="214.3213"
           x="51.877361"
           id="tspan4739" /></text>
      <path
         style="fill:none;fill-opacity:1;stroke:#00c8c8;stroke-width:0.84956533;stroke-miterlimit:4;stroke-dasharray:none;stroke-dashoffset:0;stroke-opacity:1"
         d="m 68.414437,189.52046 0.88975,-4.6369 5.871969,-3.91067 c 0.33132,-0.22065 0.781988,-0.11231 1.002391,0.23066 l 6.226872,9.68988 c 0.220402,0.34298 0.125624,0.7884 -0.206652,1.00762 l -8.006024,5.28206 c -0.332276,0.21922 -0.781989,0.1123 -1.002392,-0.23066 z"
         id="path4515" />
      <rect
         transform="rotate(12.274556)"
         y="161.87357"
         x="116.61472"
         height="11.206819"
         width="3.3214169"
         id="rect4517"
         style="fill:#666666;fill-opacity:1;stroke:none;stroke-width:0.11185334;stroke-miterlimit:4;stroke-dasharray:none;stroke-dashoffset:0;stroke-opacity:1" />
      <path
         id="path4519"
         style="font-style:normal;font-variant:normal;font-weight:normal;font-stretch:normal;font-size:medium;line-height:125%;font-family:Byom;-inkscape-font-specification:Byom;letter-spacing:-1.54815817px;word-spacing:0px;fill:#666666;fill-opacity:1;stroke:none;stroke-width:0.61059994px;stroke-linecap:butt;stroke-linejoin:miter;stroke-opacity:1"
         d="m 78.760074,192.88819 c -0.066,0.30336 -0.08685,0.56766 -0.06253,0.79291 0.03016,0.22652 0.107097,0.42045 0.230853,0.5818 0.123755,0.16135 0.295964,0.29657 0.516621,0.40568 0.221939,0.10325 0.493328,0.18982 0.814189,0.25963 0.309191,0.0673 0.572856,0.091 0.791006,0.0713 0.218149,-0.0197 0.401924,-0.05 0.551333,-0.0909 0.156511,-0.0454 0.285504,-0.0906 0.386974,-0.13577 0.10147,-0.0452 0.190123,-0.0594 0.265965,-0.0429 0.175012,0.0381 0.279259,0.10656 0.312721,0.20551 0.0393,0.10021 0.04563,0.21156 0.01895,0.33407 -0.03302,0.15168 -0.130176,0.2894 -0.29152,0.41316 -0.154243,0.11919 -0.355537,0.21593 -0.603873,0.2902 -0.24124,0.0697 -0.521786,0.10949 -0.841645,0.11932 -0.314028,0.0111 -0.646055,-0.0214 -0.996084,-0.0976 -0.361698,-0.0787 -0.71287,-0.19174 -1.053498,-0.33919 -0.341899,-0.14161 -0.639654,-0.33164 -0.893269,-0.57012 -0.246514,-0.24304 -0.425918,-0.54176 -0.538227,-0.89613 -0.106474,-0.3531 -0.105135,-0.7805 0.0042,-1.28222 z" />
      <rect
         transform="rotate(12.274556)"
         style="fill:#666666;fill-opacity:1;stroke:none;stroke-width:0.08177798;stroke-miterlimit:4;stroke-dasharray:none;stroke-dashoffset:0;stroke-opacity:1"
         id="rect4521"
         width="3.0221581"
         height="5.5702519"
         x="119.56867"
         y="166.92043" />
      <g
         aria-label="F"
         transform="matrix(-0.25460108,0.17438433,0.17438433,0.25460108,59.83429,113.48656)"
         style="font-style:normal;font-variant:normal;font-weight:normal;font-stretch:normal;font-size:45.25912094px;line-height:125%;font-family:'Byom Icons';-inkscape-font-specification:'Byom Icons';letter-spacing:0px;word-spacing:0px;fill:#000000;fill-opacity:1;stroke:none;stroke-width:1.54292476px;stroke-linecap:butt;stroke-linejoin:miter;stroke-opacity:1"
         id="g4525"
         clip-path="url(#clipPath3852)">
        <path
           d="m 82.344212,253.1023 c -0.408589,0 -0.793606,-0.0864 -1.15505,-0.2593 -0.345729,-0.15715 -0.652171,-0.37716 -0.919326,-0.66003 -0.251439,-0.28287 -0.455734,-0.62074 -0.612884,-1.01361 -0.15715,-0.39287 -0.235725,-0.81718 -0.235725,-1.27291 v -38.82384 c 0,-0.45574 0.07858,-0.88005 0.235725,-1.27292 0.15715,-0.39287 0.361445,-0.73074 0.612884,-1.01361 0.267155,-0.28287 0.573597,-0.50288 0.919326,-0.66003 0.361444,-0.17287 0.746461,-0.2593 1.15505,-0.2593 H 104.6909 c 0.29859,0 0.54217,0.11786 0.73075,0.35359 0.20429,0.22001 0.41645,0.43216 0.63646,0.63645 l 12.58769,12.37555 c 0.0943,0.18858 0.17286,0.33787 0.23572,0.44787 0.0629,0.0943 0.0943,0.2593 0.0943,0.49502 v 27.72122 c 0,0.45573 -0.0786,0.88004 -0.23572,1.27291 -0.15715,0.39287 -0.36931,0.73074 -0.63646,1.01361 -0.26715,0.28287 -0.57359,0.50288 -0.91932,0.66003 -0.34573,0.17287 -0.70718,0.2593 -1.08434,0.2593 z m 33.708618,-2.87584 c 0.0314,-0.0314 0.055,-0.0628 0.0707,-0.0943 0.0157,-0.0314 0.0236,-0.10997 0.0236,-0.23572 3.48367,-31.43787 -22.047543,-39.01696 -33.802918,-39.15385 -0.03143,0.0314 -0.05501,0.0628 -0.07072,0.0943 -0.01571,0.0314 -0.02357,0.10998 -0.02357,0.23573 v 38.82384 c 0,0.12572 0.0079,0.20429 0.02357,0.23572 0.01571,0.0314 0.03929,0.0628 0.07072,0.0943 z m -11.29121,-38.30525 c 89.47471,59.16894 44.73735,29.58447 0,0 z"
           style="fill:#000000;stroke:none;stroke-width:1.54292476px"
           id="path4523" />
      </g>
      <g
         aria-label="templado"
         style="font-style:normal;font-weight:normal;font-size:34.50331497px;line-height:125%;font-family:sans-serif;letter-spacing:0px;word-spacing:0px;fill:#ffffff;fill-opacity:1;stroke:none;stroke-width:1.17624938px;stroke-linecap:butt;stroke-linejoin:miter;stroke-opacity:1"
         id="text4529"
         transform="matrix(0.51910756,0,0,0.51910756,32.683979,95.879671)">
        <path
           d="m 93.108412,177.02047 -1.983941,9.9197 q -0.172516,0.89709 -0.08626,1.51815 0.08626,0.62106 0.465795,1.00059 0.379536,0.37954 1.035099,0.55206 0.655563,0.15526 1.604404,0.15526 0.914338,0 1.55265,-0.18977 0.638311,-0.18977 1.086854,-0.39679 0.448543,-0.22427 0.741821,-0.41404 0.31053,-0.18976 0.534802,-0.18976 0.517549,0 0.621059,0.25877 0.120762,0.25878 0.0345,0.62106 -0.08626,0.44854 -0.552053,0.89709 -0.448544,0.43129 -1.173113,0.79357 -0.707318,0.34504 -1.638908,0.56931 -0.931589,0.22427 -1.966689,0.22427 -1.069602,0 -2.08745,-0.20702 -1.017848,-0.18977 -1.776921,-0.70732 -0.741821,-0.5348 -1.086854,-1.46639 -0.327782,-0.93159 -0.0345,-2.41523 l 2.104703,-10.48901 q -0.327782,0.0172 -0.638312,0 -0.293278,-0.0345 -0.500298,-0.15526 -0.20702,-0.12077 -0.293278,-0.36229 -0.08626,-0.25877 0,-0.69007 0.06901,-0.34503 0.189768,-0.5348 0.138014,-0.20702 0.362285,-0.29327 0.224272,-0.10351 0.534801,-0.12077 0.327782,-0.0345 0.776325,-0.0345 l 0.569305,-2.84652 q 0.10351,-0.4658 0.517549,-0.58656 0.431292,-0.13801 0.948842,-0.13801 0.241523,0 0.465794,0.0345 0.224272,0.0173 0.379537,0.10351 0.172516,0.069 0.258775,0.22427 0.08626,0.13802 0.0345,0.36229 l -0.569305,2.84652 h 5.589537 q 0.258775,0 0.62106,-0.0173 0.379545,-0.0172 0.672805,0.069 0.31053,0.069 0.5003,0.27602 0.18977,0.20702 0.10351,0.65556 -0.0863,0.41404 -0.37953,0.77633 -0.27603,0.36228 -0.63832,0.37954 -0.172507,0.0172 -0.62105,0.0172 -0.431291,0 -1.035099,0 z"
           style="font-style:italic;font-variant:normal;font-weight:normal;font-stretch:normal;font-family:Byom;-inkscape-font-specification:'Byom Italic';letter-spacing:-1.77952671px;fill:#ffffff;stroke-width:1.17624938px"
           id="path4582" />
        <path
           d="m 111.97373,184.23166 q -0.91434,0.22427 -2.1047,0.44854 -1.17312,0.20702 -2.43249,0.41404 -1.25937,0.18977 -2.50149,0.36229 -1.24212,0.17251 -2.24271,0.29328 -0.17252,1.08685 -0.13802,1.91493 0.0518,0.82808 0.4658,1.39738 0.41404,0.55206 1.25937,0.84534 0.86258,0.27602 2.29447,0.27602 1.43189,0 2.44974,-0.22427 1.03509,-0.22427 1.72516,-0.5003 0.70732,-0.27602 1.13861,-0.5003 0.43129,-0.24152 0.65556,-0.27602 0.41404,-0.0173 0.62106,0.24152 0.20702,0.25878 0.12076,0.67282 -0.10351,0.55205 -0.65556,1.05235 -0.5348,0.48304 -1.44914,0.86258 -0.91434,0.37954 -2.15645,0.60381 -1.22487,0.22427 -2.72577,0.22427 -1.74241,0 -2.93278,-0.25878 -1.19036,-0.25877 -1.93218,-0.75907 -0.74183,-0.51755 -1.08686,-1.24212 -0.34503,-0.72457 -0.414038,-1.65616 -0.06901,-0.94884 0.08626,-2.08745 0.15526,-1.13861 0.43129,-2.44973 0.41404,-2.08745 1.01785,-3.79537 0.60381,-1.70791 1.65616,-2.89828 1.0696,-1.20761 2.70851,-1.86318 1.63891,-0.65556 4.10589,-0.65556 1.60441,0 2.91553,0.29328 1.31113,0.29328 2.19096,0.91434 0.87984,0.62106 1.25937,1.6044 0.39679,0.98335 0.18977,2.36348 -0.13801,0.96609 -0.41404,1.65616 -0.27602,0.69006 -0.79357,1.20761 -0.51755,0.51755 -1.32838,0.87984 -0.79358,0.36228 -1.98394,0.63831 z m -1.74242,-7.50447 q -1.34563,0 -2.34622,0.22427 -0.98335,0.20702 -1.69067,0.62106 -0.70731,0.41404 -1.19036,1.01785 -0.48305,0.60381 -0.82808,1.39738 -0.32778,0.77633 -0.58656,1.74242 -0.24152,0.94884 -0.5003,2.05295 0.75908,-0.10351 1.81143,-0.24153 1.05235,-0.15526 2.17371,-0.32778 1.13861,-0.17251 2.24271,-0.34503 1.10411,-0.18977 1.96669,-0.36229 1.22487,-0.25877 1.86318,-0.82808 0.65556,-0.58655 0.81083,-1.75966 0.12076,-0.77633 -0.15527,-1.36289 -0.25877,-0.6038 -0.77632,-1.00059 -0.51755,-0.41404 -1.24212,-0.62106 -0.72457,-0.20702 -1.55265,-0.20702 z"
           style="font-style:italic;font-variant:normal;font-weight:normal;font-stretch:normal;font-family:Byom;-inkscape-font-specification:'Byom Italic';letter-spacing:-1.77952671px;fill:#ffffff;stroke-width:1.17624938px"
           id="path4584" />
        <path
           d="m 132.10596,182.24772 q -0.069,0.36228 -0.13801,0.74182 -0.0517,0.36229 -0.13801,0.75907 l -1.5699,7.88401 q -0.0518,0.24152 -0.18977,0.37954 -0.13801,0.13801 -0.34503,0.20702 -0.18977,0.0863 -0.4313,0.10351 -0.22427,0.0173 -0.46579,0.0173 -0.5348,0 -0.91434,-0.12076 -0.36228,-0.12076 -0.25877,-0.58656 l 1.46639,-7.36646 q 0.39679,-1.98394 0.5348,-3.38132 0.15526,-1.41464 -0.13801,-2.31172 -0.27603,-0.89709 -1.06961,-1.31113 -0.79357,-0.41404 -2.25996,-0.41404 -1.58716,0 -2.46699,0.20702 -0.87984,0.18977 -1.32838,0.51755 -0.44854,0.31053 -0.5693,0.69007 -0.12077,0.37953 -0.18977,0.74182 l -2.51874,12.62821 q -0.0518,0.24152 -0.18977,0.37954 -0.13802,0.13801 -0.34504,0.20702 -0.18976,0.0863 -0.43129,0.10351 -0.22427,0.0173 -0.46579,0.0173 -0.51755,0 -0.89709,-0.12076 -0.37953,-0.12076 -0.27602,-0.58656 l 2.70851,-13.5598 q 0.17251,-0.82808 0.58655,-1.44914 0.41404,-0.63831 1.31113,-1.0696 0.89708,-0.43129 2.36348,-0.65557 1.48364,-0.22427 3.77811,-0.22427 1.81142,0 2.88103,0.56931 1.0696,0.55205 1.58715,1.58715 0.34503,-0.48305 0.86258,-0.87984 0.5348,-0.39678 1.32838,-0.67281 0.79357,-0.29328 1.86318,-0.44854 1.0696,-0.15527 2.50149,-0.15527 1.93218,0 3.05354,0.62106 1.13861,0.62106 1.62166,1.77692 0.5003,1.13861 0.44854,2.79477 -0.0345,1.63891 -0.43129,3.6746 l -1.62166,8.09103 q -0.0517,0.24152 -0.18977,0.37954 -0.13801,0.13801 -0.34503,0.20702 -0.18977,0.0863 -0.43129,0.10351 -0.22427,0.0173 -0.46579,0.0173 -0.53481,0 -0.91434,-0.12076 -0.36229,-0.12076 -0.25878,-0.58656 l 1.46639,-7.21119 q 0.41404,-1.96669 0.5348,-3.39858 0.13802,-1.43189 -0.15526,-2.36348 -0.29328,-0.93158 -1.10411,-1.36288 -0.81082,-0.44854 -2.27721,-0.44854 -1.29388,0 -2.12196,0.22427 -0.82808,0.22427 -1.34563,0.62106 -0.51755,0.39679 -0.77632,0.94884 -0.25878,0.5348 -0.37954,1.17312 z"
           style="font-style:italic;font-variant:normal;font-weight:normal;font-stretch:normal;font-family:Byom;-inkscape-font-specification:'Byom Italic';letter-spacing:-1.77952671px;fill:#ffffff;stroke-width:1.17624938px"
           id="path4586" />
        <path
           d="m 154.04908,192.32269 q -0.79357,0 -1.70791,-0.0345 -0.89709,-0.0173 -1.77692,-0.12076 -0.87984,-0.10351 -1.69066,-0.29328 -0.81083,-0.20702 -1.43189,-0.55205 l -1.39739,7.03868 q -0.069,0.34503 -0.15526,0.55205 -0.0863,0.20702 -0.20702,0.31053 -0.10351,0.10351 -0.25878,0.12076 -0.15526,0.0345 -0.37953,0.0345 -0.25878,0 -0.56931,-0.0345 -0.31053,-0.0345 -0.5693,-0.18977 -0.24153,-0.13801 -0.36229,-0.41404 -0.12076,-0.27602 -0.0345,-0.77632 l 3.98513,-19.87391 q 0.12076,-0.63831 0.65557,-1.13861 0.5348,-0.5003 1.32837,-0.87983 0.79358,-0.37954 1.79418,-0.63832 1.01784,-0.27602 2.08745,-0.43129 1.08685,-0.17251 2.15645,-0.24152 1.08686,-0.0863 2.05295,-0.0863 1.82868,0 2.86378,0.69007 1.05235,0.67281 1.44913,1.91493 0.41404,1.22487 0.32779,2.93278 -0.0863,1.69067 -0.5003,3.72636 l -0.0345,0.17252 q -0.34504,1.72516 -0.86259,3.22606 -0.51755,1.48364 -1.38013,2.605 -0.86258,1.1041 -2.17371,1.74242 -1.29387,0.63831 -3.20881,0.63831 z m -6.07258,-3.6401 q -0.0345,0.34503 0.48305,0.60381 0.51755,0.25877 1.36288,0.44854 0.86258,0.17252 1.94943,0.29328 1.08686,0.10351 2.20822,0.12076 0.82808,0.0345 1.55265,-0.13801 0.74182,-0.17252 1.36288,-0.72457 0.62106,-0.55206 1.12135,-1.55265 0.5003,-1.01785 0.84533,-2.67401 l 0.37954,-1.93219 q 0.31053,-1.51814 0.32778,-2.57049 0.0345,-1.05235 -0.15526,-1.74242 -0.17252,-0.70732 -0.5348,-1.08685 -0.34504,-0.39679 -0.81083,-0.58656 -0.4658,-0.18977 -0.98335,-0.22427 -0.50029,-0.0518 -1.00059,-0.0518 -1.17311,0 -2.25997,0.17252 -1.0696,0.15526 -1.91493,0.43129 -0.82808,0.27603 -1.36288,0.62106 -0.51755,0.34503 -0.60381,0.72457 z"
           style="font-style:italic;font-variant:normal;font-weight:normal;font-stretch:normal;font-family:Byom;-inkscape-font-specification:'Byom Italic';letter-spacing:-1.77952671px;fill:#ffffff;stroke-width:1.17624938px"
           id="path4588" />
        <path
           d="m 165.15493,191.58087 q -0.0345,0.24152 -0.18977,0.37953 -0.13802,0.13802 -0.34504,0.22427 -0.18976,0.0863 -0.43129,0.10351 -0.22427,0.0345 -0.46579,0.0345 -0.51755,0 -0.89709,-0.15527 -0.36228,-0.13801 -0.27602,-0.58655 l 4.62344,-23.06547 q 0.0863,-0.44854 0.27603,-0.58656 0.20702,-0.15526 0.72457,-0.15526 0.27602,0 0.5693,0.069 0.31053,0.0517 0.5348,0.20702 0.24152,0.13801 0.34503,0.37953 0.12077,0.24153 0.0518,0.62106 z"
           style="font-style:italic;font-variant:normal;font-weight:normal;font-stretch:normal;font-family:Byom;-inkscape-font-specification:'Byom Italic';letter-spacing:-1.77952671px;fill:#ffffff;stroke-width:1.17624938px"
           id="path4590" />
        <path
           d="m 179.68523,191.94315 q -1.06961,0.0863 -2.605,0.24152 -1.5354,0.15527 -3.31232,0.15527 -2.10471,0 -3.22606,-0.63831 -1.12136,-0.63831 -1.5699,-1.74242 -0.4313,-1.12136 -0.32779,-2.605 0.10351,-1.50089 0.44855,-3.22606 l 0.0345,-0.17252 q 0.4658,-2.31172 1.19037,-4.05414 0.72457,-1.74241 1.77692,-2.89827 1.05235,-1.17312 2.43248,-1.74242 1.38013,-0.58656 3.1743,-0.58656 0.98335,0 2.0012,0.0863 1.01784,0.069 1.93218,0.27603 0.91434,0.18976 1.69067,0.55205 0.79357,0.36228 1.29387,0.93159 0.51755,0.5693 0.72457,1.38013 0.22427,0.81083 0,1.91494 l -2.19096,10.97205 q -0.10351,0.44854 -0.32778,0.72457 -0.20702,0.27603 -0.5348,0.44854 -0.31053,0.17252 -0.70732,0.22427 -0.39679,0.069 -0.82808,0.069 z m 2.93278,-11.52411 q 0.069,-0.34503 0.10351,-0.74182 0.0345,-0.39679 -0.069,-0.79357 -0.0863,-0.39679 -0.34503,-0.75908 -0.25878,-0.37953 -0.77633,-0.65556 -0.51755,-0.27603 -1.32837,-0.44854 -0.81083,-0.17252 -2.01845,-0.17252 -0.58656,0 -1.19036,0.069 -0.60381,0.0517 -1.20762,0.27602 -0.60381,0.20702 -1.19036,0.62106 -0.56931,0.39679 -1.06961,1.08686 -0.50029,0.69006 -0.91433,1.70791 -0.41404,1.01785 -0.70732,2.43249 l -0.34504,1.75966 q -0.34503,1.69067 -0.27602,2.74302 0.0863,1.05235 0.51755,1.63891 0.44854,0.58655 1.24212,0.79357 0.79357,0.20702 1.88043,0.20702 1.62165,-0.0172 2.89828,-0.18977 1.29387,-0.17251 2.31172,-0.25877 0.15526,-0.0172 0.34503,0 0.18977,0.0173 0.25878,0.0517 z"
           style="font-style:italic;font-variant:normal;font-weight:normal;font-stretch:normal;font-family:Byom;-inkscape-font-specification:'Byom Italic';letter-spacing:-1.77952671px;fill:#ffffff;stroke-width:1.17624938px"
           id="path4592" />
        <path
           d="m 194.68833,174.69149 q 0.79357,0 1.67341,0.0863 0.87983,0.069 1.75967,0.24153 0.87983,0.15526 1.67341,0.43129 0.79357,0.27602 1.41463,0.67281 l 1.48365,-7.46997 q 0.069,-0.34503 0.15526,-0.55205 0.0863,-0.20702 0.18977,-0.31053 0.10351,-0.10351 0.25877,-0.12076 0.17252,-0.0345 0.39679,-0.0345 0.25878,0 0.56931,0.0345 0.31053,0.0345 0.55205,0.18977 0.24152,0.13801 0.36228,0.43129 0.13802,0.27603 0.0518,0.75907 l -4.08864,20.42596 q -0.13802,0.63832 -0.65557,1.10411 -0.51755,0.44854 -1.31112,0.77632 -0.77633,0.31053 -1.77692,0.51755 -0.98335,0.18977 -2.05295,0.29328 -1.0696,0.10351 -2.13921,0.13802 -1.0696,0.0345 -2.03569,0.0345 -1.84593,0 -2.88103,-0.67282 -1.0351,-0.69006 -1.44914,-1.91493 -0.41404,-1.24212 -0.32778,-2.93278 0.10351,-1.70792 0.51755,-3.74361 l 0.0345,-0.17252 q 0.34504,-1.72516 0.86259,-3.20881 0.51755,-1.50089 1.38013,-2.605 0.86258,-1.12135 2.15646,-1.75967 1.31112,-0.63831 3.22606,-0.63831 z m -2.0357,15.45749 q 1.17311,0 2.22547,-0.069 1.0696,-0.0863 1.88043,-0.24152 0.82808,-0.17252 1.32837,-0.43129 0.51755,-0.27603 0.58656,-0.65557 l 1.98394,-9.86794 q 0.0345,-0.34504 -0.46579,-0.69007 -0.5003,-0.34503 -1.34563,-0.62106 -0.82808,-0.29328 -1.89769,-0.48305 -1.0696,-0.18976 -2.19096,-0.22427 -0.82808,-0.0172 -1.5699,0.15527 -0.74182,0.15526 -1.36288,0.70732 -0.60381,0.55205 -1.1041,1.5699 -0.48305,1.00059 -0.82808,2.65675 l -0.39679,1.93219 q -0.31053,1.51814 -0.34504,2.57049 -0.0173,1.05236 0.15527,1.75967 0.18977,0.69007 0.5348,1.08686 0.36229,0.37953 0.81083,0.5693 0.46579,0.18977 0.98334,0.24153 0.51755,0.0345 1.01785,0.0345 z"
           style="font-style:italic;font-variant:normal;font-weight:normal;font-stretch:normal;font-family:Byom;-inkscape-font-specification:'Byom Italic';letter-spacing:-1.77952671px;fill:#ffffff;stroke-width:1.17624938px"
           id="path4594" />
        <path
           d="m 210.74378,192.33994 q -1.75967,0 -2.96729,-0.32778 -1.19036,-0.32778 -1.94943,-0.91434 -0.74182,-0.60381 -1.10411,-1.41464 -0.36228,-0.82808 -0.44854,-1.79417 -0.069,-0.98334 0.0517,-2.08745 0.12076,-1.10411 0.36229,-2.25997 v -0.069 q 0.24152,-1.15586 0.55205,-2.25997 0.31053,-1.10411 0.77633,-2.0702 0.48304,-0.98334 1.17311,-1.79417 0.69006,-0.82808 1.67341,-1.41464 1.00059,-0.60381 2.31172,-0.93159 1.32838,-0.32778 3.08805,-0.32778 h 0.10351 q 1.75967,0 2.96728,0.32778 1.20762,0.32778 1.94944,0.93159 0.74182,0.58656 1.10411,1.41464 0.37953,0.81083 0.44854,1.79417 0.0863,0.96609 -0.0345,2.0702 -0.12077,1.10411 -0.36229,2.25997 v 0.069 q -0.24152,1.15586 -0.55205,2.25997 -0.31053,1.10411 -0.79358,2.08745 -0.46579,0.96609 -1.17311,1.79417 -0.69007,0.81083 -1.67341,1.41464 -0.98335,0.58656 -2.31172,0.91434 -1.32838,0.32778 -3.08805,0.32778 z m 0.63831,-2.13921 q 1.65616,0 2.74301,-0.41404 1.08686,-0.43129 1.79418,-1.24212 0.70731,-0.82808 1.12135,-2.01844 0.4313,-1.20762 0.74183,-2.76026 l 0.10351,-0.53481 q 0.31053,-1.53539 0.36228,-2.72576 0.069,-1.20761 -0.31053,-2.01844 -0.37954,-0.82808 -1.29387,-1.24212 -0.91434,-0.43129 -2.5705,-0.43129 h -0.34503 q -1.65616,0 -2.74302,0.43129 -1.08685,0.41404 -1.79417,1.24212 -0.70732,0.81083 -1.12136,2.01844 -0.41404,1.19037 -0.72457,2.72576 l -0.10351,0.53481 q -0.31053,1.53539 -0.37953,2.74301 -0.069,1.19036 0.31053,2.01844 0.37953,0.81083 1.29387,1.24212 0.91434,0.43129 2.5705,0.43129 z"
           style="font-style:italic;font-variant:normal;font-weight:normal;font-stretch:normal;font-family:Byom;-inkscape-font-specification:'Byom Italic';letter-spacing:-1.77952671px;fill:#ffffff;stroke-width:1.17624938px"
           id="path4596" />
      </g>
    </g>
  </g>
</svg>
